inDegrees=yes
name=ik_S49_A01_T02
DataType=double
version=3
OpenSimVersion=4.3-2021-08-27-4bc7ad9
endheader
time	pelvis_tilt	pelvis_list	pelvis_rotation	pelvis_tx	pelvis_ty	pelvis_tz	hip_flexion_r	hip_adduction_r	hip_rotation_r	knee_angle_r	knee_angle_r_beta	ankle_angle_r	subtalar_angle_r	mtp_angle_r	hip_flexion_l	hip_adduction_l	hip_rotation_l	knee_angle_l	knee_angle_l_beta	ankle_angle_l	subtalar_angle_l	mtp_angle_l	lumbar_extension	lumbar_bending	lumbar_rotation	arm_flex_r	arm_add_r	arm_rot_r	elbow_flex_r	pro_sup_r	wrist_flex_r	wrist_dev_r	arm_flex_l	arm_add_l	arm_rot_l	elbow_flex_l	pro_sup_l	wrist_flex_l	wrist_dev_l
10.65999999999986	2.760282910669376	6.110408448472325	95.30189838331694	0	0.9399999999999999	0	-16.48137950338033	6.699910198888371	-3.357217423376632	0.02347460232310964	0.000409709101134573	0	0	0	16.63945041779127	-5.216353896355841	-11.13162121161157	-3.217905862295011	-0.05616305231627519	0	0	0	0	0	0	30.25082328568933	-30.25082328568933	4.278275494522117	74.99964021279354	85.72172474575444	0	0	30.25082328568933	-30.25082328568933	4.278275494522117	74.99964021279354	85.72172474561951	0	0
10.67999999999986	2.968760329673715	6.20336947024077	94.80238214128244	0	0.9399999999999999	0	-17.41032416586094	6.628260309950279	-3.763471964380975	0.7483962389808057	0.01306197847975739	0	0	0	16.44316332825666	-4.532173900026844	-10.60517578681776	-2.856580453517576	-0.04985673426199453	0	0	0	0	0	0	30.25426712162958	-30.25426712162958	4.278611334733923	75.00434533917891	85.7213889055601	0	0	30.25426712162958	-30.25426712162958	4.278611334733923	75.00434533917891	85.72138890542521	0	0
10.69999999999986	3.291377295564684	6.421608486387748	93.5981846127027	0	0.9399999999999999	0	-18.4737820013323	6.481513368248786	-3.398966864879392	1.513574848488147	0.02641686458149248	0	0	0	16.22983783838972	-4.843302926007335	-10.30892463555652	-1.343870274557273	-0.0234549610107046	0	0	0	0	0	0	30.25806366413561	-30.25806366413561	4.278981394688956	75.00952975856794	85.7210188456243	0	0	30.25806366413561	-30.25806366413561	4.278981394688956	75.00952975856794	85.7210188454895	0	0
10.71999999999986	3.283092340610043	6.629577475665885	92.88120120378818	0	0.9399999999999999	0	-19.42025380687007	6.121612058544547	-3.707826935158989	2.4660165062184	0.0430401074420383	0	0	0	15.88018917927077	-4.744707443211823	-9.633489330447265	-0.3100657153702993	-0.005411667630763311	0	0	0	0	0	0	30.26120961085926	-30.26120961085926	4.279287986812175	75.01382495436501	85.72071225351704	0	0	30.26120961085926	-30.26120961085926	4.279287986812175	75.01382495436501	85.72071225338226	0	0
10.73999999999986	3.28532493925063	6.626997721153214	92.89155975217415	0	0.9399999999999999	0	-20.59560068109542	5.826165340995944	-5.955616546794607	3.424204173114309	0.05976363708137459	0	0	0	15.65188168184644	-4.1921526968995	-7.446421655486214	-0.03641836548075539	-0.0006356203858338291	0	0	0	0	0	0	30.28477485896432	-30.28477485896432	4.2813232961086	75.04221939840311	85.71867694432447	0	0	30.28477485896432	-30.28477485896432	4.2813232961086	75.04221939840311	85.71867694419011	0	0
10.75999999999986	2.872431838817126	7.092858191775674	91.96115694897111	0	0.9399999999999999	0	-21.2430197910141	4.95186258909143	-5.406105271806462	4.925570260402361	0.08596741858233567	0	0	0	14.73560865844195	-4.001660138676863	-8.527753568438463	1.313445793473099	0.02292395364257503	0	0	0	0	0	0	30.28868542955482	-30.28868542955482	4.281702831201362	75.04753549483767	85.71829740925145	0	0	30.28868542955482	-30.28868542955482	4.281702831201362	75.04753549483767	85.71829740911714	0	0
10.77999999999986	1.762582865734549	7.703295074157766	92.05812194337727	0	0.9399999999999999	0	-22.13256188555802	3.265600559712503	-7.898431160235583	6.996694187377677	0.1221153503248895	0	0	0	13.83269376318553	-3.59391821690123	-12.0202660676913	3.79117460414392	0.06616847936030407	0	0	0	0	0	0	30.42206403716865	-30.42206403716865	4.292724769331559	75.20104115389881	85.70727547167947	0	0	30.42206403716865	-30.42206403716865	4.292724769331559	75.20104115389881	85.70727547154719	0	0
10.79999999999986	1.390932363981984	7.89192640546636	92.26878487881604	0	0.9399999999999999	0	-21.86065791772943	2.27185133666536	-9.344809636677446	9.681596430931336	0.1689757345690836	0	0	0	13.77454527941292	-3.8847455338537	-10.07464906057993	5.807677026694546	0.1013630860082544	0	0	0	0	0	0	30.51455713899599	-30.51455713899599	4.300369685121303	75.30751631924177	85.69963055627696	0	0	30.51455713899599	-30.51455713899599	4.300369685121303	75.30751631924177	85.69963055614609	0	0
10.81999999999986	0.8779613903036148	7.987473086955806	92.68540686406459	0	0.9399999999999999	0	-21.2407030529594	0.4270950527146141	-11.88098078973276	15.38812912733167	0.2685735189939794	0	0	0	13.77348705398732	-3.607142210556187	-4.568876364277306	6.70776030408935	0.1170725027409352	0	0	0	0	0	0	30.57135522992786	-30.57135522992786	4.305145727657746	75.37407446935066	85.69485451398309	0	0	30.57135522992786	-30.57135522992786	4.305145727657746	75.37407446935066	85.69485451385314	0	0
10.83999999999986	0.7589988307227992	7.915430217250307	92.73003587202506	0	0.9399999999999999	0	-20.06611347613063	-1.016269604715308	-14.2684826687004	18.19515519592577	0.3175653660802586	0	0	0	13.55169530405297	-3.322773877584212	-3.64639999645915	7.889758277263114	0.137702259124717	0	0	0	0	0	0	30.6480683373238	-30.6480683373238	4.311439881058506	75.46171217170499	85.68856036090074	0	0	30.6480683373238	-30.6480683373238	4.311439881058506	75.46171217170499	85.68856036077202	0	0
10.85999999999986	0.8179660844211705	7.897779553630712	92.37132818142732	0	0.9399999999999999	0	-18.49729118680526	-2.680544629831725	-15.23454683427592	22.64944797574418	0.3953074409359007	0	0	0	10.84711807269231	-3.327806222504495	-9.852812797539064	7.842008531118929	0.1368688688375095	0	0	0	0	0	0	30.71557095068302	-30.71557095068302	4.317055314610049	75.539934891426	85.68294492763391	0	0	30.71557095068302	-30.71557095068302	4.317055314610049	75.539934891426	85.68294492750624	0	0
10.87999999999986	0.6687008239712847	7.841825473822431	91.83089358648908	0	0.9399999999999999	0	-15.94190714136137	-4.314666762545329	-14.05172928474577	27.77621741091169	0.4847864475701837	0	0	0	10.86462247633431	-3.282039803805564	-10.43298373591889	7.814184261150567	0.1363832437145978	0	0	0	0	0	0	30.89658046926619	-30.89658046926619	4.331653952054662	75.7430715050297	85.6683462909254	0	0	30.89658046926619	-30.89658046926619	4.331653952054662	75.7430715050297	85.66834629080046	0	0
10.89999999999986	0.1862318133009312	7.979417588099491	91.37990434513249	0	0.9399999999999999	0	-12.97594457471534	-6.224437001619864	-12.35826771622268	33.19767852766676	0.5794087943264085	0	0	0	8.394078491247656	-3.246338626685825	-9.828914952139407	5.506343664595947	0.0961038266935296	0	0	0	0	0	0	31.05008276906457	-31.05008276906457	4.343699206261774	75.91051951180019	85.65630103732256	0	0	31.05008276906457	-31.05008276906457	4.343699206261774	75.91051951180019	85.65630103719978	0	0
10.91999999999986	-0.4121958672379519	8.095437157366918	91.20799645046814	0	0.9399999999999999	0	-10.84018771100375	-7.984877774913548	-11.86809032902725	37.66295172342361	0.6573425135934148	0	0	0	7.318288545265721	-2.024089906231924	-7.650522338182706	3.879100513069419	0.06770307596886269	0	0	0	0	0	0	31.10703680583786	-31.10703680583786	4.348290990855359	75.97441200600755	85.65170925296047	0	0	31.10703680583786	-31.10703680583786	4.348290990855359	75.97441200600755	85.65170925283861	0	0
10.93999999999986	-0.8184251881894195	7.992754119636796	91.15203333382483	0	0.9399999999999999	0	-8.779876666436063	-9.475145659050186	-12.43357355938511	41.48220009143438	0.7240009725666228	0	0	0	6.320834598634696	-1.467746108708913	-5.775560317699985	2.292735916405124	0.04001579061999888	0	0	0	0	0	0	31.13910355815195	-31.13910355815195	4.350917118981202	76.01097029885419	85.64908312496736	0	0	31.13910355815195	-31.13910355815195	4.350917118981202	76.01097029885419	85.64908312484599	0	0
10.95999999999986	-0.9330966528315158	7.919913296528275	91.07767682037023	0	0.9399999999999999	0	-6.431967175098007	-10.09129734229465	-11.8838393629888	44.30818313441156	0.773323681272103	0	0	0	6.374640623228268	-1.394654996976651	-6.029452857085531	3.345055135544891	0.05838222577600355	0	0	0	0	0	0	31.26002578294041	-31.26002578294041	4.360478143231766	76.14392488851033	85.63952210119716	0	0	31.26002578294041	-31.26002578294041	4.360478143231766	76.14392488851033	85.63952210107755	0	0
10.97999999999985	-0.7916026245602085	8.057995378890116	91.04231905517111	0	0.9399999999999999	0	-4.683537071615135	-10.79333965129541	-10.92143545192036	45.83805825526556	0.8000250392753514	0	0	0	4.250746770098305	-1.229453288241457	-7.457241893132721	6.578619535552408	0.1148185711314097	0	0	0	0	0	0	31.3645830378312	-31.3645830378312	4.368719589139803	76.25852091453376	85.63128065570305	0	0	31.3645830378312	-31.3645830378312	4.368719589139803	76.25852091453376	85.63128065558496	0	0
10.99999999999985	-0.5580809517287948	8.292758480114827	91.06637404356984	0	0.9399999999999999	0	-4.869222353333629	-10.41255450348785	-10.9013766795766	44.56165117221468	0.7777475330803368	0	0	0	3.055738877027065	-1.725722003725094	-8.138661101055247	6.528322069248162	0.1139407147389897	0	0	0	0	0	0	31.36799753730353	-31.36799753730353	4.369034840603888	76.2629230825801	85.63096540425518	0	0	31.36799753730353	-31.36799753730353	4.369034840603888	76.2629230825801	85.63096540413713	0	0
11.01999999999985	-0.3587336117741989	8.425611342439318	91.18065082150285	0	0.9399999999999999	0	-3.022449472310148	-10.73430791998075	-9.47059486602109	44.44058943235116	0.7756346071215255	0	0	0	1.931805602682501	-1.441507078791743	-7.125735809714918	5.295980911744668	0.0924323040327157	0	0	0	0	0	0	31.38847588314772	-31.38847588314772	4.370689008933099	76.28593762793112	85.6293112360093	0	0	31.38847588314772	-31.38847588314772	4.370689008933099	76.28593762793112	85.62931123589158	0	0
11.03999999999985	-0.2184153826646462	8.506277788443768	91.38786984837516	0	0.9399999999999999	0	-0.9121562018941629	-10.59538657744697	-7.512221044479894	43.79083017262083	0.7642941686939103	0	0	0	0.9159055514646464	-1.282972352278888	-6.061301209673475	4.157097075938069	0.07255503130014804	0	0	0	0	0	0	31.41789877968242	-31.41789877968242	4.37305125913919	76.31879969815191	85.62694898592211	0	0	31.41789877968242	-31.41789877968242	4.37305125913919	76.31879969815191	85.62694898580484	0	0
11.05999999999985	-0.1742184333820342	8.551872242233854	91.52634777322133	0	0.9399999999999999	0	0.5212404221425937	-10.56174913265059	-5.780165026945165	43.51619420860062	0.759500866877369	0	0	0	-0.02815303231635881	-1.536141863154874	-6.929822027227182	4.761810601131754	0.08310927334611952	0	0	0	0	0	0	31.44916951782687	-31.44916951782687	4.375541114748381	76.35343014634579	85.62445913043818	0	0	31.44916951782687	-31.44916951782687	4.375541114748381	76.35343014634579	85.62445913032137	0	0
11.07999999999985	-0.04955306932565635	8.558693950096336	91.81700245464117	0	0.9399999999999999	0	1.75305237613222	-10.05646929037246	-3.88841599245212	38.55405668224445	0.6728952291056869	0	0	0	-0.8744984470309449	-1.830708948280865	-7.420748595072745	5.575322978047357	0.09730774282902191	0	0	0	0	0	0	31.49220008288424	-31.49220008288424	4.37897237255011	76.4011555011999	85.62102787280914	0	0	31.49220008288424	-31.49220008288424	4.37897237255011	76.4011555011999	85.62102787269293	0	0
11.09999999999985	0.1038715669594112	8.386403901858399	92.22861111180055	0	0.9399999999999999	0	3.223036031686141	-9.388349816926855	-2.203303102987585	34.80039582605949	0.6073814881620299	0	0	0	-1.469373268743059	-1.670944588031005	-6.425531761800085	5.334279775673581	0.09310074530804852	0	0	0	0	0	0	31.5293637780086	-31.5293637780086	4.381930673216697	76.44229921381698	85.6180695722913	0	0	31.5293637780086	-31.5293637780086	4.381930673216697	76.44229921381698	85.61806957217571	0	0
11.11999999999985	0.1636938776813367	8.32612665299518	92.33283180064466	0	0.9399999999999999	0	4.387429862801452	-8.837843701411238	-0.9386054290428142	33.18749453297323	0.5792310500880006	0	0	0	-1.395726691031075	-1.750460559969673	-6.303209402754917	5.335768675681939	0.09312673151542733	0	0	0	0	0	0	31.55217368688264	-31.55217368688264	4.383769456305131	76.46788137433785	85.61623078929556	0	0	31.55217368688264	-31.55217368688264	4.383769456305131	76.46788137433785	85.61623078918031	0	0
